<svg xmlns="http://www.w3.org/2000/svg" width="904" height="1280" viewBox="0 0 904 1280">
<rect width="904" height="1280" fill="white"/>
<rect x="44" y="33" width="26" height="26" fill="black"/>
<rect x="837" y="33" width="26" height="26" fill="black"/>
<rect x="171" y="153" width="26" height="26" fill="black"/>
<rect x="171" y="613" width="26" height="26" fill="black"/>
<rect x="865" y="613" width="26" height="26" fill="black"/>
<rect x="44" y="1199" width="26" height="26" fill="black"/>
<rect x="429" y="1199" width="26" height="26" fill="black"/>
<rect x="782" y="1199" width="26" height="26" fill="black"/>
<text x="452" y="26" font-family="Arial" font-size="15" font-weight="bold" text-anchor="middle" fill="black">SmartGrade OMR Answer Sheet</text>
<text x="40" y="144" font-family="Arial" font-size="11" fill="black">Name</text>
<rect x="40" y="150" width="118" height="34" fill="none" stroke="black" stroke-width="1.5"/>
<text x="246" y="259" font-family="Arial" font-size="12" text-anchor="end" fill="black">1</text>
<circle cx="276" cy="255" r="15" fill="none" stroke="black" stroke-width="2"/>
<text x="276" y="259.5" font-family="Arial" font-size="13" font-weight="bold" text-anchor="middle" fill="black">A</text>
<circle cx="313" cy="255" r="15" fill="none" stroke="black" stroke-width="2"/>
<text x="313" y="259.5" font-family="Arial" font-size="13" font-weight="bold" text-anchor="middle" fill="black">B</text>
<circle cx="350" cy="255" r="15" fill="none" stroke="black" stroke-width="2"/>
<text x="350" y="259.5" font-family="Arial" font-size="13" font-weight="bold" text-anchor="middle" fill="black">C</text>
<circle cx="386" cy="255" r="15" fill="none" stroke="black" stroke-width="2"/>
<text x="386" y="259.5" font-family="Arial" font-size="13" font-weight="bold" text-anchor="middle" fill="black">D</text>
<circle cx="423" cy="255" r="15" fill="none" stroke="black" stroke-width="2"/>
<text x="423" y="259.5" font-family="Arial" font-size="13" font-weight="bold" text-anchor="middle" fill="black">E</text>
<text x="246" y="301" font-family="Arial" font-size="12" text-anchor="end" fill="black">2</text>
<circle cx="276" cy="297" r="15" fill="none" stroke="black" stroke-width="2"/>
<text x="276" y="301.5" font-family="Arial" font-size="13" font-weight="bold" text-anchor="middle" fill="black">A</text>
<circle cx="313" cy="297" r="15" fill="none" stroke="black" stroke-width="2"/>
<text x="313" y="301.5" font-family="Arial" font-size="13" font-weight="bold" text-anchor="middle" fill="black">B</text>
<circle cx="350" cy="297" r="15" fill="none" stroke="black" stroke-width="2"/>
<text x="350" y="301.5" font-family="Arial" font-size="13" font-weight="bold" text-anchor="middle" fill="black">C</text>
<circle cx="386" cy="297" r="15" fill="none" stroke="black" stroke-width="2"/>
<text x="386" y="301.5" font-family="Arial" font-size="13" font-weight="bold" text-anchor="middle" fill="black">D</text>
<circle cx="423" cy="297" r="15" fill="none" stroke="black" stroke-width="2"/>
<text x="423" y="301.5" font-family="Arial" font-size="13" font-weight="bold" text-anchor="middle" fill="black">E</text>
<text x="246" y="343" font-family="Arial" font-size="12" text-anchor="end" fill="black">3</text>
<circle cx="276" cy="339" r="15" fill="none" stroke="black" stroke-width="2"/>
<text x="276" y="343.5" font-family="Arial" font-size="13" font-weight="bold" text-anchor="middle" fill="black">A</text>
<circle cx="313" cy="339" r="15" fill="none" stroke="black" stroke-width="2"/>
<text x="313" y="343.5" font-family="Arial" font-size="13" font-weight="bold" text-anchor="middle" fill="black">B</text>
<circle cx="350" cy="339" r="15" fill="none" stroke="black" stroke-width="2"/>
<text x="350" y="343.5" font-family="Arial" font-size="13" font-weight="bold" text-anchor="middle" fill="black">C</text>
<circle cx="386" cy="339" r="15" fill="none" stroke="black" stroke-width="2"/>
<text x="386" y="343.5" font-family="Arial" font-size="13" font-weight="bold" text-anchor="middle" fill="black">D</text>
<circle cx="423" cy="339" r="15" fill="none" stroke="black" stroke-width="2"/>
<text x="423" y="343.5" font-family="Arial" font-size="13" font-weight="bold" text-anchor="middle" fill="black">E</text>
<text x="246" y="388" font-family="Arial" font-size="12" text-anchor="end" fill="black">4</text>
<circle cx="276" cy="384" r="15" fill="none" stroke="black" stroke-width="2"/>
<text x="276" y="388.5" font-family="Arial" font-size="13" font-weight="bold" text-anchor="middle" fill="black">A</text>
<circle cx="313" cy="384" r="15" fill="none" stroke="black" stroke-width="2"/>
<text x="313" y="388.5" font-family="Arial" font-size="13" font-weight="bold" text-anchor="middle" fill="black">B</text>
<circle cx="350" cy="384" r="15" fill="none" stroke="black" stroke-width="2"/>
<text x="350" y="388.5" font-family="Arial" font-size="13" font-weight="bold" text-anchor="middle" fill="black">C</text>
<circle cx="386" cy="384" r="15" fill="none" stroke="black" stroke-width="2"/>
<text x="386" y="388.5" font-family="Arial" font-size="13" font-weight="bold" text-anchor="middle" fill="black">D</text>
<circle cx="423" cy="384" r="15" fill="none" stroke="black" stroke-width="2"/>
<text x="423" y="388.5" font-family="Arial" font-size="13" font-weight="bold" text-anchor="middle" fill="black">E</text>
<text x="246" y="432" font-family="Arial" font-size="12" text-anchor="end" fill="black">5</text>
<circle cx="276" cy="428" r="15" fill="none" stroke="black" stroke-width="2"/>
<text x="276" y="432.5" font-family="Arial" font-size="13" font-weight="bold" text-anchor="middle" fill="black">A</text>
<circle cx="313" cy="428" r="15" fill="none" stroke="black" stroke-width="2"/>
<text x="313" y="432.5" font-family="Arial" font-size="13" font-weight="bold" text-anchor="middle" fill="black">B</text>
<circle cx="350" cy="428" r="15" fill="none" stroke="black" stroke-width="2"/>
<text x="350" y="432.5" font-family="Arial" font-size="13" font-weight="bold" text-anchor="middle" fill="black">C</text>
<circle cx="386" cy="428" r="15" fill="none" stroke="black" stroke-width="2"/>
<text x="386" y="432.5" font-family="Arial" font-size="13" font-weight="bold" text-anchor="middle" fill="black">D</text>
<circle cx="423" cy="428" r="15" fill="none" stroke="black" stroke-width="2"/>
<text x="423" y="432.5" font-family="Arial" font-size="13" font-weight="bold" text-anchor="middle" fill="black">E</text>
<text x="246" y="476" font-family="Arial" font-size="12" text-anchor="end" fill="black">6</text>
<circle cx="276" cy="472" r="15" fill="none" stroke="black" stroke-width="2"/>
<text x="276" y="476.5" font-family="Arial" font-size="13" font-weight="bold" text-anchor="middle" fill="black">A</text>
<circle cx="313" cy="472" r="15" fill="none" stroke="black" stroke-width="2"/>
<text x="313" y="476.5" font-family="Arial" font-size="13" font-weight="bold" text-anchor="middle" fill="black">B</text>
<circle cx="350" cy="472" r="15" fill="none" stroke="black" stroke-width="2"/>
<text x="350" y="476.5" font-family="Arial" font-size="13" font-weight="bold" text-anchor="middle" fill="black">C</text>
<circle cx="386" cy="472" r="15" fill="none" stroke="black" stroke-width="2"/>
<text x="386" y="476.5" font-family="Arial" font-size="13" font-weight="bold" text-anchor="middle" fill="black">D</text>
<circle cx="423" cy="472" r="15" fill="none" stroke="black" stroke-width="2"/>
<text x="423" y="476.5" font-family="Arial" font-size="13" font-weight="bold" text-anchor="middle" fill="black">E</text>
<text x="246" y="521" font-family="Arial" font-size="12" text-anchor="end" fill="black">7</text>
<circle cx="276" cy="517" r="15" fill="none" stroke="black" stroke-width="2"/>
<text x="276" y="521.5" font-family="Arial" font-size="13" font-weight="bold" text-anchor="middle" fill="black">A</text>
<circle cx="313" cy="517" r="15" fill="none" stroke="black" stroke-width="2"/>
<text x="313" y="521.5" font-family="Arial" font-size="13" font-weight="bold" text-anchor="middle" fill="black">B</text>
<circle cx="350" cy="517" r="15" fill="none" stroke="black" stroke-width="2"/>
<text x="350" y="521.5" font-family="Arial" font-size="13" font-weight="bold" text-anchor="middle" fill="black">C</text>
<circle cx="386" cy="517" r="15" fill="none" stroke="black" stroke-width="2"/>
<text x="386" y="521.5" font-family="Arial" font-size="13" font-weight="bold" text-anchor="middle" fill="black">D</text>
<circle cx="423" cy="517" r="15" fill="none" stroke="black" stroke-width="2"/>
<text x="423" y="521.5" font-family="Arial" font-size="13" font-weight="bold" text-anchor="middle" fill="black">E</text>
<text x="237" y="672" font-family="Arial" font-size="12" text-anchor="end" fill="black">8</text>
<circle cx="267" cy="668" r="15" fill="none" stroke="black" stroke-width="2"/>
<text x="267" y="672.5" font-family="Arial" font-size="13" font-weight="bold" text-anchor="middle" fill="black">A</text>
<circle cx="299" cy="668" r="15" fill="none" stroke="black" stroke-width="2"/>
<text x="299" y="672.5" font-family="Arial" font-size="13" font-weight="bold" text-anchor="middle" fill="black">B</text>
<circle cx="332" cy="668" r="15" fill="none" stroke="black" stroke-width="2"/>
<text x="332" y="672.5" font-family="Arial" font-size="13" font-weight="bold" text-anchor="middle" fill="black">C</text>
<circle cx="364" cy="668" r="15" fill="none" stroke="black" stroke-width="2"/>
<text x="364" y="672.5" font-family="Arial" font-size="13" font-weight="bold" text-anchor="middle" fill="black">D</text>
<circle cx="397" cy="668" r="15" fill="none" stroke="black" stroke-width="2"/>
<text x="397" y="672.5" font-family="Arial" font-size="13" font-weight="bold" text-anchor="middle" fill="black">E</text>
<text x="237" y="719" font-family="Arial" font-size="12" text-anchor="end" fill="black">9</text>
<circle cx="267" cy="715" r="15" fill="none" stroke="black" stroke-width="2"/>
<text x="267" y="719.5" font-family="Arial" font-size="13" font-weight="bold" text-anchor="middle" fill="black">A</text>
<circle cx="299" cy="715" r="15" fill="none" stroke="black" stroke-width="2"/>
<text x="299" y="719.5" font-family="Arial" font-size="13" font-weight="bold" text-anchor="middle" fill="black">B</text>
<circle cx="332" cy="715" r="15" fill="none" stroke="black" stroke-width="2"/>
<text x="332" y="719.5" font-family="Arial" font-size="13" font-weight="bold" text-anchor="middle" fill="black">C</text>
<circle cx="364" cy="715" r="15" fill="none" stroke="black" stroke-width="2"/>
<text x="364" y="719.5" font-family="Arial" font-size="13" font-weight="bold" text-anchor="middle" fill="black">D</text>
<circle cx="397" cy="715" r="15" fill="none" stroke="black" stroke-width="2"/>
<text x="397" y="719.5" font-family="Arial" font-size="13" font-weight="bold" text-anchor="middle" fill="black">E</text>
<text x="237" y="764" font-family="Arial" font-size="12" text-anchor="end" fill="black">10</text>
<circle cx="267" cy="760" r="15" fill="none" stroke="black" stroke-width="2"/>
<text x="267" y="764.5" font-family="Arial" font-size="13" font-weight="bold" text-anchor="middle" fill="black">A</text>
<circle cx="299" cy="760" r="15" fill="none" stroke="black" stroke-width="2"/>
<text x="299" y="764.5" font-family="Arial" font-size="13" font-weight="bold" text-anchor="middle" fill="black">B</text>
<circle cx="332" cy="760" r="15" fill="none" stroke="black" stroke-width="2"/>
<text x="332" y="764.5" font-family="Arial" font-size="13" font-weight="bold" text-anchor="middle" fill="black">C</text>
<circle cx="364" cy="760" r="15" fill="none" stroke="black" stroke-width="2"/>
<text x="364" y="764.5" font-family="Arial" font-size="13" font-weight="bold" text-anchor="middle" fill="black">D</text>
<circle cx="397" cy="760" r="15" fill="none" stroke="black" stroke-width="2"/>
<text x="397" y="764.5" font-family="Arial" font-size="13" font-weight="bold" text-anchor="middle" fill="black">E</text>
<text x="237" y="811" font-family="Arial" font-size="12" text-anchor="end" fill="black">11</text>
<circle cx="267" cy="807" r="15" fill="none" stroke="black" stroke-width="2"/>
<text x="267" y="811.5" font-family="Arial" font-size="13" font-weight="bold" text-anchor="middle" fill="black">A</text>
<circle cx="299" cy="807" r="15" fill="none" stroke="black" stroke-width="2"/>
<text x="299" y="811.5" font-family="Arial" font-size="13" font-weight="bold" text-anchor="middle" fill="black">B</text>
<circle cx="332" cy="807" r="15" fill="none" stroke="black" stroke-width="2"/>
<text x="332" y="811.5" font-family="Arial" font-size="13" font-weight="bold" text-anchor="middle" fill="black">C</text>
<circle cx="364" cy="807" r="15" fill="none" stroke="black" stroke-width="2"/>
<text x="364" y="811.5" font-family="Arial" font-size="13" font-weight="bold" text-anchor="middle" fill="black">D</text>
<circle cx="397" cy="807" r="15" fill="none" stroke="black" stroke-width="2"/>
<text x="397" y="811.5" font-family="Arial" font-size="13" font-weight="bold" text-anchor="middle" fill="black">E</text>
<text x="237" y="861" font-family="Arial" font-size="12" text-anchor="end" fill="black">12</text>
<circle cx="267" cy="857" r="15" fill="none" stroke="black" stroke-width="2"/>
<text x="267" y="861.5" font-family="Arial" font-size="13" font-weight="bold" text-anchor="middle" fill="black">A</text>
<circle cx="299" cy="857" r="15" fill="none" stroke="black" stroke-width="2"/>
<text x="299" y="861.5" font-family="Arial" font-size="13" font-weight="bold" text-anchor="middle" fill="black">B</text>
<circle cx="332" cy="857" r="15" fill="none" stroke="black" stroke-width="2"/>
<text x="332" y="861.5" font-family="Arial" font-size="13" font-weight="bold" text-anchor="middle" fill="black">C</text>
<circle cx="364" cy="857" r="15" fill="none" stroke="black" stroke-width="2"/>
<text x="364" y="861.5" font-family="Arial" font-size="13" font-weight="bold" text-anchor="middle" fill="black">D</text>
<circle cx="397" cy="857" r="15" fill="none" stroke="black" stroke-width="2"/>
<text x="397" y="861.5" font-family="Arial" font-size="13" font-weight="bold" text-anchor="middle" fill="black">E</text>
<text x="237" y="907" font-family="Arial" font-size="12" text-anchor="end" fill="black">13</text>
<circle cx="267" cy="903" r="15" fill="none" stroke="black" stroke-width="2"/>
<text x="267" y="907.5" font-family="Arial" font-size="13" font-weight="bold" text-anchor="middle" fill="black">A</text>
<circle cx="299" cy="903" r="15" fill="none" stroke="black" stroke-width="2"/>
<text x="299" y="907.5" font-family="Arial" font-size="13" font-weight="bold" text-anchor="middle" fill="black">B</text>
<circle cx="332" cy="903" r="15" fill="none" stroke="black" stroke-width="2"/>
<text x="332" y="907.5" font-family="Arial" font-size="13" font-weight="bold" text-anchor="middle" fill="black">C</text>
<circle cx="364" cy="903" r="15" fill="none" stroke="black" stroke-width="2"/>
<text x="364" y="907.5" font-family="Arial" font-size="13" font-weight="bold" text-anchor="middle" fill="black">D</text>
<circle cx="397" cy="903" r="15" fill="none" stroke="black" stroke-width="2"/>
<text x="397" y="907.5" font-family="Arial" font-size="13" font-weight="bold" text-anchor="middle" fill="black">E</text>
<text x="237" y="952" font-family="Arial" font-size="12" text-anchor="end" fill="black">14</text>
<circle cx="267" cy="948" r="15" fill="none" stroke="black" stroke-width="2"/>
<text x="267" y="952.5" font-family="Arial" font-size="13" font-weight="bold" text-anchor="middle" fill="black">A</text>
<circle cx="299" cy="948" r="15" fill="none" stroke="black" stroke-width="2"/>
<text x="299" y="952.5" font-family="Arial" font-size="13" font-weight="bold" text-anchor="middle" fill="black">B</text>
<circle cx="332" cy="948" r="15" fill="none" stroke="black" stroke-width="2"/>
<text x="332" y="952.5" font-family="Arial" font-size="13" font-weight="bold" text-anchor="middle" fill="black">C</text>
<circle cx="364" cy="948" r="15" fill="none" stroke="black" stroke-width="2"/>
<text x="364" y="952.5" font-family="Arial" font-size="13" font-weight="bold" text-anchor="middle" fill="black">D</text>
<circle cx="397" cy="948" r="15" fill="none" stroke="black" stroke-width="2"/>
<text x="397" y="952.5" font-family="Arial" font-size="13" font-weight="bold" text-anchor="middle" fill="black">E</text>
<text x="237" y="1001" font-family="Arial" font-size="12" text-anchor="end" fill="black">15</text>
<circle cx="267" cy="997" r="15" fill="none" stroke="black" stroke-width="2"/>
<text x="267" y="1001.5" font-family="Arial" font-size="13" font-weight="bold" text-anchor="middle" fill="black">A</text>
<circle cx="299" cy="997" r="15" fill="none" stroke="black" stroke-width="2"/>
<text x="299" y="1001.5" font-family="Arial" font-size="13" font-weight="bold" text-anchor="middle" fill="black">B</text>
<circle cx="332" cy="997" r="15" fill="none" stroke="black" stroke-width="2"/>
<text x="332" y="1001.5" font-family="Arial" font-size="13" font-weight="bold" text-anchor="middle" fill="black">C</text>
<circle cx="364" cy="997" r="15" fill="none" stroke="black" stroke-width="2"/>
<text x="364" y="1001.5" font-family="Arial" font-size="13" font-weight="bold" text-anchor="middle" fill="black">D</text>
<circle cx="397" cy="997" r="15" fill="none" stroke="black" stroke-width="2"/>
<text x="397" y="1001.5" font-family="Arial" font-size="13" font-weight="bold" text-anchor="middle" fill="black">E</text>
<text x="237" y="1046" font-family="Arial" font-size="12" text-anchor="end" fill="black">16</text>
<circle cx="267" cy="1042" r="15" fill="none" stroke="black" stroke-width="2"/>
<text x="267" y="1046.5" font-family="Arial" font-size="13" font-weight="bold" text-anchor="middle" fill="black">A</text>
<circle cx="299" cy="1042" r="15" fill="none" stroke="black" stroke-width="2"/>
<text x="299" y="1046.5" font-family="Arial" font-size="13" font-weight="bold" text-anchor="middle" fill="black">B</text>
<circle cx="332" cy="1042" r="15" fill="none" stroke="black" stroke-width="2"/>
<text x="332" y="1046.5" font-family="Arial" font-size="13" font-weight="bold" text-anchor="middle" fill="black">C</text>
<circle cx="364" cy="1042" r="15" fill="none" stroke="black" stroke-width="2"/>
<text x="364" y="1046.5" font-family="Arial" font-size="13" font-weight="bold" text-anchor="middle" fill="black">D</text>
<circle cx="397" cy="1042" r="15" fill="none" stroke="black" stroke-width="2"/>
<text x="397" y="1046.5" font-family="Arial" font-size="13" font-weight="bold" text-anchor="middle" fill="black">E</text>
<text x="237" y="1095" font-family="Arial" font-size="12" text-anchor="end" fill="black">17</text>
<circle cx="267" cy="1091" r="15" fill="none" stroke="black" stroke-width="2"/>
<text x="267" y="1095.5" font-family="Arial" font-size="13" font-weight="bold" text-anchor="middle" fill="black">A</text>
<circle cx="299" cy="1091" r="15" fill="none" stroke="black" stroke-width="2"/>
<text x="299" y="1095.5" font-family="Arial" font-size="13" font-weight="bold" text-anchor="middle" fill="black">B</text>
<circle cx="332" cy="1091" r="15" fill="none" stroke="black" stroke-width="2"/>
<text x="332" y="1095.5" font-family="Arial" font-size="13" font-weight="bold" text-anchor="middle" fill="black">C</text>
<circle cx="364" cy="1091" r="15" fill="none" stroke="black" stroke-width="2"/>
<text x="364" y="1095.5" font-family="Arial" font-size="13" font-weight="bold" text-anchor="middle" fill="black">D</text>
<circle cx="397" cy="1091" r="15" fill="none" stroke="black" stroke-width="2"/>
<text x="397" y="1095.5" font-family="Arial" font-size="13" font-weight="bold" text-anchor="middle" fill="black">E</text>
<text x="506" y="259" font-family="Arial" font-size="12" text-anchor="end" fill="black">18</text>
<circle cx="536" cy="255" r="15" fill="none" stroke="black" stroke-width="2"/>
<text x="536" y="259.5" font-family="Arial" font-size="13" font-weight="bold" text-anchor="middle" fill="black">A</text>
<circle cx="573" cy="255" r="15" fill="none" stroke="black" stroke-width="2"/>
<text x="573" y="259.5" font-family="Arial" font-size="13" font-weight="bold" text-anchor="middle" fill="black">B</text>
<circle cx="610" cy="255" r="15" fill="none" stroke="black" stroke-width="2"/>
<text x="610" y="259.5" font-family="Arial" font-size="13" font-weight="bold" text-anchor="middle" fill="black">C</text>
<circle cx="646" cy="255" r="15" fill="none" stroke="black" stroke-width="2"/>
<text x="646" y="259.5" font-family="Arial" font-size="13" font-weight="bold" text-anchor="middle" fill="black">D</text>
<circle cx="683" cy="255" r="15" fill="none" stroke="black" stroke-width="2"/>
<text x="683" y="259.5" font-family="Arial" font-size="13" font-weight="bold" text-anchor="middle" fill="black">E</text>
<text x="506" y="301" font-family="Arial" font-size="12" text-anchor="end" fill="black">19</text>
<circle cx="536" cy="297" r="15" fill="none" stroke="black" stroke-width="2"/>
<text x="536" y="301.5" font-family="Arial" font-size="13" font-weight="bold" text-anchor="middle" fill="black">A</text>
<circle cx="573" cy="297" r="15" fill="none" stroke="black" stroke-width="2"/>
<text x="573" y="301.5" font-family="Arial" font-size="13" font-weight="bold" text-anchor="middle" fill="black">B</text>
<circle cx="610" cy="297" r="15" fill="none" stroke="black" stroke-width="2"/>
<text x="610" y="301.5" font-family="Arial" font-size="13" font-weight="bold" text-anchor="middle" fill="black">C</text>
<circle cx="646" cy="297" r="15" fill="none" stroke="black" stroke-width="2"/>
<text x="646" y="301.5" font-family="Arial" font-size="13" font-weight="bold" text-anchor="middle" fill="black">D</text>
<circle cx="683" cy="297" r="15" fill="none" stroke="black" stroke-width="2"/>
<text x="683" y="301.5" font-family="Arial" font-size="13" font-weight="bold" text-anchor="middle" fill="black">E</text>
<text x="506" y="343" font-family="Arial" font-size="12" text-anchor="end" fill="black">20</text>
<circle cx="536" cy="339" r="15" fill="none" stroke="black" stroke-width="2"/>
<text x="536" y="343.5" font-family="Arial" font-size="13" font-weight="bold" text-anchor="middle" fill="black">A</text>
<circle cx="573" cy="339" r="15" fill="none" stroke="black" stroke-width="2"/>
<text x="573" y="343.5" font-family="Arial" font-size="13" font-weight="bold" text-anchor="middle" fill="black">B</text>
<circle cx="610" cy="339" r="15" fill="none" stroke="black" stroke-width="2"/>
<text x="610" y="343.5" font-family="Arial" font-size="13" font-weight="bold" text-anchor="middle" fill="black">C</text>
<circle cx="646" cy="339" r="15" fill="none" stroke="black" stroke-width="2"/>
<text x="646" y="343.5" font-family="Arial" font-size="13" font-weight="bold" text-anchor="middle" fill="black">D</text>
<circle cx="683" cy="339" r="15" fill="none" stroke="black" stroke-width="2"/>
<text x="683" y="343.5" font-family="Arial" font-size="13" font-weight="bold" text-anchor="middle" fill="black">E</text>
<text x="578" y="674" font-family="Arial" font-size="14" font-weight="bold" text-anchor="middle" fill="black">St_ID Without 320</text>
<rect x="458" y="640" width="30" height="24" fill="none" stroke="black" stroke-width="1.2"/>
<rect x="494" y="640" width="30" height="24" fill="none" stroke="black" stroke-width="1.2"/>
<rect x="529" y="640" width="30" height="24" fill="none" stroke="black" stroke-width="1.2"/>
<rect x="564" y="640" width="30" height="24" fill="none" stroke="black" stroke-width="1.2"/>
<rect x="599" y="640" width="30" height="24" fill="none" stroke="black" stroke-width="1.2"/>
<rect x="634" y="640" width="30" height="24" fill="none" stroke="black" stroke-width="1.2"/>
<rect x="669" y="640" width="30" height="24" fill="none" stroke="black" stroke-width="1.2"/>
<circle cx="473" cy="706" r="15" fill="none" stroke="black" stroke-width="2"/>
<text x="473" y="710" font-family="Arial" font-size="11" text-anchor="middle" fill="black">0</text>
<circle cx="509" cy="706" r="15" fill="none" stroke="black" stroke-width="2"/>
<text x="509" y="710" font-family="Arial" font-size="11" text-anchor="middle" fill="black">0</text>
<circle cx="544" cy="706" r="15" fill="none" stroke="black" stroke-width="2"/>
<text x="544" y="710" font-family="Arial" font-size="11" text-anchor="middle" fill="black">0</text>
<circle cx="579" cy="706" r="15" fill="none" stroke="black" stroke-width="2"/>
<text x="579" y="710" font-family="Arial" font-size="11" text-anchor="middle" fill="black">0</text>
<circle cx="614" cy="706" r="15" fill="none" stroke="black" stroke-width="2"/>
<text x="614" y="710" font-family="Arial" font-size="11" text-anchor="middle" fill="black">0</text>
<circle cx="649" cy="706" r="15" fill="none" stroke="black" stroke-width="2"/>
<text x="649" y="710" font-family="Arial" font-size="11" text-anchor="middle" fill="black">0</text>
<circle cx="684" cy="706" r="15" fill="none" stroke="black" stroke-width="2"/>
<text x="684" y="710" font-family="Arial" font-size="11" text-anchor="middle" fill="black">0</text>
<circle cx="473" cy="748" r="15" fill="none" stroke="black" stroke-width="2"/>
<text x="473" y="752" font-family="Arial" font-size="11" text-anchor="middle" fill="black">1</text>
<circle cx="509" cy="748" r="15" fill="none" stroke="black" stroke-width="2"/>
<text x="509" y="752" font-family="Arial" font-size="11" text-anchor="middle" fill="black">1</text>
<circle cx="544" cy="748" r="15" fill="none" stroke="black" stroke-width="2"/>
<text x="544" y="752" font-family="Arial" font-size="11" text-anchor="middle" fill="black">1</text>
<circle cx="579" cy="748" r="15" fill="none" stroke="black" stroke-width="2"/>
<text x="579" y="752" font-family="Arial" font-size="11" text-anchor="middle" fill="black">1</text>
<circle cx="614" cy="748" r="15" fill="none" stroke="black" stroke-width="2"/>
<text x="614" y="752" font-family="Arial" font-size="11" text-anchor="middle" fill="black">1</text>
<circle cx="649" cy="748" r="15" fill="none" stroke="black" stroke-width="2"/>
<text x="649" y="752" font-family="Arial" font-size="11" text-anchor="middle" fill="black">1</text>
<circle cx="684" cy="748" r="15" fill="none" stroke="black" stroke-width="2"/>
<text x="684" y="752" font-family="Arial" font-size="11" text-anchor="middle" fill="black">1</text>
<circle cx="473" cy="790" r="15" fill="none" stroke="black" stroke-width="2"/>
<text x="473" y="794" font-family="Arial" font-size="11" text-anchor="middle" fill="black">2</text>
<circle cx="509" cy="790" r="15" fill="none" stroke="black" stroke-width="2"/>
<text x="509" y="794" font-family="Arial" font-size="11" text-anchor="middle" fill="black">2</text>
<circle cx="544" cy="790" r="15" fill="none" stroke="black" stroke-width="2"/>
<text x="544" y="794" font-family="Arial" font-size="11" text-anchor="middle" fill="black">2</text>
<circle cx="579" cy="790" r="15" fill="none" stroke="black" stroke-width="2"/>
<text x="579" y="794" font-family="Arial" font-size="11" text-anchor="middle" fill="black">2</text>
<circle cx="614" cy="790" r="15" fill="none" stroke="black" stroke-width="2"/>
<text x="614" y="794" font-family="Arial" font-size="11" text-anchor="middle" fill="black">2</text>
<circle cx="649" cy="790" r="15" fill="none" stroke="black" stroke-width="2"/>
<text x="649" y="794" font-family="Arial" font-size="11" text-anchor="middle" fill="black">2</text>
<circle cx="684" cy="790" r="15" fill="none" stroke="black" stroke-width="2"/>
<text x="684" y="794" font-family="Arial" font-size="11" text-anchor="middle" fill="black">2</text>
<circle cx="473" cy="833" r="15" fill="none" stroke="black" stroke-width="2"/>
<text x="473" y="837" font-family="Arial" font-size="11" text-anchor="middle" fill="black">3</text>
<circle cx="509" cy="833" r="15" fill="none" stroke="black" stroke-width="2"/>
<text x="509" y="837" font-family="Arial" font-size="11" text-anchor="middle" fill="black">3</text>
<circle cx="544" cy="833" r="15" fill="none" stroke="black" stroke-width="2"/>
<text x="544" y="837" font-family="Arial" font-size="11" text-anchor="middle" fill="black">3</text>
<circle cx="579" cy="833" r="15" fill="none" stroke="black" stroke-width="2"/>
<text x="579" y="837" font-family="Arial" font-size="11" text-anchor="middle" fill="black">3</text>
<circle cx="614" cy="833" r="15" fill="none" stroke="black" stroke-width="2"/>
<text x="614" y="837" font-family="Arial" font-size="11" text-anchor="middle" fill="black">3</text>
<circle cx="649" cy="833" r="15" fill="none" stroke="black" stroke-width="2"/>
<text x="649" y="837" font-family="Arial" font-size="11" text-anchor="middle" fill="black">3</text>
<circle cx="684" cy="833" r="15" fill="none" stroke="black" stroke-width="2"/>
<text x="684" y="837" font-family="Arial" font-size="11" text-anchor="middle" fill="black">3</text>
<circle cx="473" cy="876" r="15" fill="none" stroke="black" stroke-width="2"/>
<text x="473" y="880" font-family="Arial" font-size="11" text-anchor="middle" fill="black">4</text>
<circle cx="509" cy="876" r="15" fill="none" stroke="black" stroke-width="2"/>
<text x="509" y="880" font-family="Arial" font-size="11" text-anchor="middle" fill="black">4</text>
<circle cx="544" cy="876" r="15" fill="none" stroke="black" stroke-width="2"/>
<text x="544" y="880" font-family="Arial" font-size="11" text-anchor="middle" fill="black">4</text>
<circle cx="579" cy="876" r="15" fill="none" stroke="black" stroke-width="2"/>
<text x="579" y="880" font-family="Arial" font-size="11" text-anchor="middle" fill="black">4</text>
<circle cx="614" cy="876" r="15" fill="none" stroke="black" stroke-width="2"/>
<text x="614" y="880" font-family="Arial" font-size="11" text-anchor="middle" fill="black">4</text>
<circle cx="649" cy="876" r="15" fill="none" stroke="black" stroke-width="2"/>
<text x="649" y="880" font-family="Arial" font-size="11" text-anchor="middle" fill="black">4</text>
<circle cx="684" cy="876" r="15" fill="none" stroke="black" stroke-width="2"/>
<text x="684" y="880" font-family="Arial" font-size="11" text-anchor="middle" fill="black">4</text>
<circle cx="473" cy="917" r="15" fill="none" stroke="black" stroke-width="2"/>
<text x="473" y="921" font-family="Arial" font-size="11" text-anchor="middle" fill="black">5</text>
<circle cx="509" cy="917" r="15" fill="none" stroke="black" stroke-width="2"/>
<text x="509" y="921" font-family="Arial" font-size="11" text-anchor="middle" fill="black">5</text>
<circle cx="544" cy="917" r="15" fill="none" stroke="black" stroke-width="2"/>
<text x="544" y="921" font-family="Arial" font-size="11" text-anchor="middle" fill="black">5</text>
<circle cx="579" cy="917" r="15" fill="none" stroke="black" stroke-width="2"/>
<text x="579" y="921" font-family="Arial" font-size="11" text-anchor="middle" fill="black">5</text>
<circle cx="614" cy="917" r="15" fill="none" stroke="black" stroke-width="2"/>
<text x="614" y="921" font-family="Arial" font-size="11" text-anchor="middle" fill="black">5</text>
<circle cx="649" cy="917" r="15" fill="none" stroke="black" stroke-width="2"/>
<text x="649" y="921" font-family="Arial" font-size="11" text-anchor="middle" fill="black">5</text>
<circle cx="684" cy="917" r="15" fill="none" stroke="black" stroke-width="2"/>
<text x="684" y="921" font-family="Arial" font-size="11" text-anchor="middle" fill="black">5</text>
<circle cx="473" cy="960" r="15" fill="none" stroke="black" stroke-width="2"/>
<text x="473" y="964" font-family="Arial" font-size="11" text-anchor="middle" fill="black">6</text>
<circle cx="509" cy="960" r="15" fill="none" stroke="black" stroke-width="2"/>
<text x="509" y="964" font-family="Arial" font-size="11" text-anchor="middle" fill="black">6</text>
<circle cx="544" cy="960" r="15" fill="none" stroke="black" stroke-width="2"/>
<text x="544" y="964" font-family="Arial" font-size="11" text-anchor="middle" fill="black">6</text>
<circle cx="579" cy="960" r="15" fill="none" stroke="black" stroke-width="2"/>
<text x="579" y="964" font-family="Arial" font-size="11" text-anchor="middle" fill="black">6</text>
<circle cx="614" cy="960" r="15" fill="none" stroke="black" stroke-width="2"/>
<text x="614" y="964" font-family="Arial" font-size="11" text-anchor="middle" fill="black">6</text>
<circle cx="649" cy="960" r="15" fill="none" stroke="black" stroke-width="2"/>
<text x="649" y="964" font-family="Arial" font-size="11" text-anchor="middle" fill="black">6</text>
<circle cx="684" cy="960" r="15" fill="none" stroke="black" stroke-width="2"/>
<text x="684" y="964" font-family="Arial" font-size="11" text-anchor="middle" fill="black">6</text>
<circle cx="473" cy="1002" r="15" fill="none" stroke="black" stroke-width="2"/>
<text x="473" y="1006" font-family="Arial" font-size="11" text-anchor="middle" fill="black">7</text>
<circle cx="509" cy="1002" r="15" fill="none" stroke="black" stroke-width="2"/>
<text x="509" y="1006" font-family="Arial" font-size="11" text-anchor="middle" fill="black">7</text>
<circle cx="544" cy="1002" r="15" fill="none" stroke="black" stroke-width="2"/>
<text x="544" y="1006" font-family="Arial" font-size="11" text-anchor="middle" fill="black">7</text>
<circle cx="579" cy="1002" r="15" fill="none" stroke="black" stroke-width="2"/>
<text x="579" y="1006" font-family="Arial" font-size="11" text-anchor="middle" fill="black">7</text>
<circle cx="614" cy="1002" r="15" fill="none" stroke="black" stroke-width="2"/>
<text x="614" y="1006" font-family="Arial" font-size="11" text-anchor="middle" fill="black">7</text>
<circle cx="649" cy="1002" r="15" fill="none" stroke="black" stroke-width="2"/>
<text x="649" y="1006" font-family="Arial" font-size="11" text-anchor="middle" fill="black">7</text>
<circle cx="684" cy="1002" r="15" fill="none" stroke="black" stroke-width="2"/>
<text x="684" y="1006" font-family="Arial" font-size="11" text-anchor="middle" fill="black">7</text>
<circle cx="473" cy="1044" r="15" fill="none" stroke="black" stroke-width="2"/>
<text x="473" y="1048" font-family="Arial" font-size="11" text-anchor="middle" fill="black">8</text>
<circle cx="509" cy="1044" r="15" fill="none" stroke="black" stroke-width="2"/>
<text x="509" y="1048" font-family="Arial" font-size="11" text-anchor="middle" fill="black">8</text>
<circle cx="544" cy="1044" r="15" fill="none" stroke="black" stroke-width="2"/>
<text x="544" y="1048" font-family="Arial" font-size="11" text-anchor="middle" fill="black">8</text>
<circle cx="579" cy="1044" r="15" fill="none" stroke="black" stroke-width="2"/>
<text x="579" y="1048" font-family="Arial" font-size="11" text-anchor="middle" fill="black">8</text>
<circle cx="614" cy="1044" r="15" fill="none" stroke="black" stroke-width="2"/>
<text x="614" y="1048" font-family="Arial" font-size="11" text-anchor="middle" fill="black">8</text>
<circle cx="649" cy="1044" r="15" fill="none" stroke="black" stroke-width="2"/>
<text x="649" y="1048" font-family="Arial" font-size="11" text-anchor="middle" fill="black">8</text>
<circle cx="684" cy="1044" r="15" fill="none" stroke="black" stroke-width="2"/>
<text x="684" y="1048" font-family="Arial" font-size="11" text-anchor="middle" fill="black">8</text>
<circle cx="473" cy="1085" r="15" fill="none" stroke="black" stroke-width="2"/>
<text x="473" y="1089" font-family="Arial" font-size="11" text-anchor="middle" fill="black">9</text>
<circle cx="509" cy="1085" r="15" fill="none" stroke="black" stroke-width="2"/>
<text x="509" y="1089" font-family="Arial" font-size="11" text-anchor="middle" fill="black">9</text>
<circle cx="544" cy="1085" r="15" fill="none" stroke="black" stroke-width="2"/>
<text x="544" y="1089" font-family="Arial" font-size="11" text-anchor="middle" fill="black">9</text>
<circle cx="579" cy="1085" r="15" fill="none" stroke="black" stroke-width="2"/>
<text x="579" y="1089" font-family="Arial" font-size="11" text-anchor="middle" fill="black">9</text>
<circle cx="614" cy="1085" r="15" fill="none" stroke="black" stroke-width="2"/>
<text x="614" y="1089" font-family="Arial" font-size="11" text-anchor="middle" fill="black">9</text>
<circle cx="649" cy="1085" r="15" fill="none" stroke="black" stroke-width="2"/>
<text x="649" y="1089" font-family="Arial" font-size="11" text-anchor="middle" fill="black">9</text>
<circle cx="684" cy="1085" r="15" fill="none" stroke="black" stroke-width="2"/>
<text x="684" y="1089" font-family="Arial" font-size="11" text-anchor="middle" fill="black">9</text>
</svg>

